<?xml version="1.0" encoding="utf-8"?>
<!-- Generator: Avocode 2.4.2-d618096 - http://avocode.com -->
<svg height="36" width="40" xmlns:xlink="http://www.w3.org/1999/xlink" xmlns="http://www.w3.org/2000/svg" viewBox="0 0 40 36">
    <path fill="#027ee7" fill-rule="evenodd" d="M 31 26.5 C 30.94 26.47 30.87 26.47 30.81 26.51 L 27.75 28.77 L 20.12 22.32 C 20.05 22.26 19.95 22.26 19.88 22.32 L 12.24 28.77 L 8.95 26.5 C 8.89 26.47 8.82 26.47 8.76 26.5 C 8.7 26.53 8.66 26.59 8.66 26.66 L 8.66 28.91 C 8.66 28.98 8.7 29.04 8.76 29.07 L 19.9 35.76 C 19.93 35.78 19.97 35.78 20 35.78 C 20.03 35.78 20.07 35.78 20.1 35.76 L 31.01 29.07 C 31.06 29.04 31.1 28.98 31.1 28.91 L 31.1 26.66 C 31.1 26.59 31.06 26.53 31 26.5" />
    <path fill="#027ee7" fill-rule="evenodd" d="M 39.02 7.93 C 39.07 7.9 39.1 7.84 39.09 7.78 C 39.09 7.72 39.06 7.66 39.01 7.63 L 27.96 0.38 C 27.89 0.33 27.8 0.34 27.74 0.39 L 19.98 6.94 L 12.28 0.39 C 12.21 0.34 12.12 0.33 12.05 0.38 L 0.99 7.63 C 0.94 7.66 0.91 7.72 0.91 7.78 C 0.9 7.84 0.93 7.9 0.98 7.93 L 8.74 13.98 L 8.76 13.99 C 8.75 13.99 8.75 13.99 8.75 13.99 L 0.98 19.92 C 0.93 19.95 0.9 20.01 0.91 20.07 C 0.91 20.13 0.94 20.19 0.99 20.22 L 12.24 27.48 C 12.27 27.5 12.31 27.51 12.34 27.51 C 12.38 27.51 12.43 27.49 12.46 27.46 L 20 21.08 C 20.01 21.07 20.02 21.06 20.02 21.05 L 20.02 21.05 L 27.62 27.46 C 27.65 27.49 27.69 27.51 27.74 27.51 C 27.77 27.51 27.81 27.5 27.84 27.48 L 38.82 20.28 C 38.87 20.25 38.9 20.2 38.9 20.14 C 38.91 20.08 38.88 20.02 38.83 19.98 L 31.21 14 C 31.21 14 31.2 13.99 31.19 13.99 L 31.21 13.98 L 39.02 7.93 L 39.02 7.93 Z M 20 20.8 L 19.98 20.78 L 8.95 13.99 L 19.98 7.26 L 19.98 7.26 L 31 13.99 L 20.05 20.75 C 20.03 20.76 20.01 20.78 20 20.8 L 20 20.8 Z M 20 20.8" />
</svg>