<?xml version="1.0" encoding="utf-8"?>
<!-- Generator: Adobe Illustrator 16.0.0, SVG Export Plug-In . SVG Version: 6.00 Build 0)  -->
<!DOCTYPE svg PUBLIC "-//W3C//DTD SVG 1.1//EN" "http://www.w3.org/Graphics/SVG/1.1/DTD/svg11.dtd">
<svg version="1.1" id="Capa_1" xmlns="http://www.w3.org/2000/svg" xmlns:xlink="http://www.w3.org/1999/xlink" x="0px" y="0px"
	 width="18px" height="26px" viewBox="0 0 18 26" enable-background="new 0 0 18 26" xml:space="preserve">
<title>Page 1</title>
<desc>Created with Sketch.</desc>
<g id="Page-1">
	<g>
		<g id="Clip-2">
		</g>
		<defs>
			<filter id="Adobe_OpacityMaskFilter" filterUnits="userSpaceOnUse" x="0" y="0" width="17.788" height="26">
				<feColorMatrix  type="matrix" values="1 0 0 0 0  0 1 0 0 0  0 0 1 0 0  0 0 0 1 0"/>
			</filter>
		</defs>
		<mask maskUnits="userSpaceOnUse" x="0" y="0" width="17.788" height="26" id="mask-2">
			<g filter="url(#Adobe_OpacityMaskFilter)">
				<polygon id="path-1" fill="#FFFFFF" points="17.787,0 17.787,26 0,26 0,0 				"/>
			</g>
		</mask>
		<path id="Fill-1" mask="url(#mask-2)" fill="#FFFFFF" d="M8.091,3.073c2.776,0,5.036,2.27,5.036,5.059
			c0,2.787-2.26,5.063-5.036,5.063c-2.778,0-5.037-2.276-5.037-5.063C3.054,5.343,5.313,3.073,8.091,3.073 M0,8.132
			c0,4.482,3.629,8.129,8.091,8.129c0.689,0,1.354-0.094,1.993-0.258l3.729,8.177v0.004l0.71,1.554
			c0.05,0.104,0.14,0.192,0.253,0.236c0.037,0.009,0.071,0.019,0.112,0.023L14.904,26l0.018-0.002c0.068,0,0.135-0.009,0.199-0.039
			l2.4-1.103c0.229-0.106,0.329-0.38,0.225-0.604l-0.709-1.553v-0.005l-3.789-8.305c1.793-1.492,2.936-3.742,2.936-6.257
			C16.184,3.648,12.554,0,8.091,0C3.629,0,0,3.648,0,8.132"/>
	</g>
</g>
</svg>
