<?xml version="1.0" encoding="utf-8"?>
<!-- Generator: Adobe Illustrator 16.0.0, SVG Export Plug-In . SVG Version: 6.00 Build 0)  -->
<!DOCTYPE svg PUBLIC "-//W3C//DTD SVG 1.1//EN" "http://www.w3.org/Graphics/SVG/1.1/DTD/svg11.dtd">
<svg version="1.1" id="Capa_1" xmlns="http://www.w3.org/2000/svg" xmlns:xlink="http://www.w3.org/1999/xlink" x="0px" y="0px"
	 width="15px" height="90px" viewBox="0 0 15 90" enable-background="new 0 0 15 90" xml:space="preserve">
<rect display="none" fill="#DD0AA1" width="15" height="45"/>
<rect y="45" display="none" fill="#0B0BDB" width="15" height="45"/>
<path fill="#70BACB" d="M2.534,12.036c-2.726,2.726-2.714,7.17,0.025,9.909c1.536,1.536,3.607,2.214,5.613,2.029l2.758,7.386
	l0.003,0.004l0.516,1.38c0.073,0.202,0.302,0.306,0.506,0.232l2.14-0.792c0.057-0.021,0.104-0.057,0.146-0.1l0.012-0.008
	c0,0,0.005-0.008,0.01-0.014c0.022-0.026,0.037-0.053,0.054-0.082c0.043-0.096,0.044-0.205,0.01-0.298l-0.514-1.383l-0.004-0.003
	l-2.716-7.271c0.489-0.291,0.955-0.639,1.376-1.059c2.725-2.725,2.713-7.17-0.024-9.907C9.703,9.322,5.258,9.312,2.534,12.036z
	 M10.578,13.927c1.702,1.702,1.711,4.472,0.014,6.168c-1.695,1.696-4.464,1.686-6.166-0.017c-1.705-1.704-1.71-4.469-0.014-6.165
	C6.107,12.217,8.873,12.222,10.578,13.927z"/>
<path fill="#FFFFFF" d="M2.534,61.036c-2.726,2.726-2.714,7.17,0.025,9.909c1.536,1.536,3.607,2.214,5.613,2.029l2.758,7.386
	l0.003,0.004l0.516,1.38c0.073,0.202,0.302,0.306,0.506,0.232l2.14-0.792c0.057-0.021,0.104-0.057,0.146-0.1l0.012-0.008
	c0,0,0.005-0.008,0.01-0.014c0.022-0.026,0.037-0.053,0.054-0.082c0.043-0.096,0.044-0.205,0.01-0.298l-0.514-1.383l-0.004-0.003
	l-2.716-7.271c0.489-0.291,0.955-0.639,1.376-1.06c2.725-2.725,2.713-7.17-0.024-9.906C9.703,58.322,5.258,58.312,2.534,61.036z
	 M10.578,62.927c1.702,1.701,1.711,4.472,0.014,6.168c-1.695,1.695-4.464,1.686-6.166-0.017c-1.705-1.704-1.71-4.47-0.014-6.165
	C6.107,61.218,8.873,61.222,10.578,62.927z"/>
</svg>
