<?xml version="1.0" encoding="utf-8"?>
<!-- Generator: Adobe Illustrator 16.0.0, SVG Export Plug-In . SVG Version: 6.00 Build 0)  -->
<!DOCTYPE svg PUBLIC "-//W3C//DTD SVG 1.1//EN" "http://www.w3.org/Graphics/SVG/1.1/DTD/svg11.dtd">
<svg version="1.1" id="Capa_1" xmlns="http://www.w3.org/2000/svg" xmlns:xlink="http://www.w3.org/1999/xlink" x="0px" y="0px"
	 width="53px" height="30px" viewBox="0 0 53 30" enable-background="new 0 0 53 30" xml:space="preserve">
<title>Fill 1</title>
<desc>Created with Sketch.</desc>
<g id="Page-1">
	<path id="Fill-1" fill="#FFFFFF" d="M38.232,24.04c1.034-1.372,2.066-2.747,3.104-4.116c0.325-0.428,0.297-0.805-0.041-1.229
		c-0.75-0.941-1.461-1.912-2.198-2.863c-0.161-0.206-0.27-0.518-0.721-0.458C39.338,18.289,39.341,21.145,38.232,24.04
		 M22.883,19.307c-0.343,2.631,2.328,5.795,5.732,5.739c3.203-0.052,5.799-2.533,5.803-5.622c0.003-3.26-2.567-5.803-5.74-5.931
		C25.75,13.374,22.604,16.275,22.883,19.307 M16.238,19.458c0.235-3.197-2.756-6.026-5.659-5.958
		c-3.251,0.075-5.877,2.566-5.883,5.773c-0.005,3.225,2.507,5.746,5.743,5.766C13.66,25.057,16.224,22.589,16.238,19.458
		 M35.898,11.438c0.029-0.391,0.057-0.612,0.063-0.833c0.021-0.954,0.456-1.646,1.374-1.916c0.893-0.263,1.646-0.009,2.226,0.782
		c1.332,1.811,2.696,3.599,4.053,5.392c0.711,0.939,0.813,0.937,1.537-0.023c1.277-1.69,2.547-3.384,3.821-5.076
		c0.904-1.198,2.026-1.505,3.005-0.826c0.973,0.675,1.186,2.086,0.389,3.238c-0.853,1.231-1.797,2.397-2.705,3.589
		c-0.731,0.958-1.453,1.923-2.207,2.861c-0.389,0.487-0.379,0.878,0.01,1.382c1.654,2.139,3.279,4.3,4.896,6.469
		c0.606,0.813,0.639,1.93,0.125,2.655c-0.565,0.799-1.365,0.961-2.256,0.735c-0.671-0.17-1.084-0.703-1.475-1.227
		c-1.133-1.512-2.247-3.037-3.376-4.552c-0.863-1.157-1.12-1.164-2.015,0.007c-1.227,1.605-2.42,3.233-3.641,4.842
		c-0.695,0.918-1.541,1.267-2.455,0.946c-0.895-0.312-1.318-0.995-1.322-1.955c-0.004-0.817-0.399-0.544-0.779-0.247
		c-1.889,1.471-4.026,2.229-6.422,2.262c-3.475,0.049-6.211-1.434-8.401-4.047c-0.778-0.929-0.935-0.953-1.647-0.002
		c-3.738,4.991-11.344,5.508-15.789,0.795c-1.87-1.982-2.872-4.34-2.889-7.059C-0.016,14.027,0.01,8.422,0.006,2.817
		c0-0.667,0.104-1.298,0.492-1.858c0.566-0.816,1.365-1.078,2.308-0.911c0.871,0.154,1.587,0.953,1.705,1.913
		c0.303,2.467,0.212,4.941,0.101,7.414c-0.011,0.253-0.172,0.56,0.067,0.736c0.246,0.18,0.495-0.061,0.713-0.182
		c4.634-2.584,10.404-1.331,13.557,3.099c0.437,0.614,0.696,0.697,1.193,0.023c3.727-5.056,9.912-5.93,14.972-2.15
		C35.318,11.054,35.535,11.191,35.898,11.438"/>
</g>
</svg>
