<?xml version="1.0" encoding="utf-8"?>
<!-- Generator: Avocode 2.4.2-d618096 - http://avocode.com -->
<svg height="26" width="44" xmlns:xlink="http://www.w3.org/1999/xlink" xmlns="http://www.w3.org/2000/svg" viewBox="0 0 44 26">
    <path fill="#3389ff" fill-rule="evenodd" d="M 30.05 9.88 C 30.08 9.56 30.1 9.38 30.1 9.2 C 30.12 8.41 30.48 7.85 31.23 7.62 C 31.96 7.41 32.58 7.62 33.06 8.27 C 34.15 9.75 35.27 11.22 36.38 12.69 C 36.96 13.46 37.04 13.46 37.64 12.67 C 38.69 11.28 39.73 9.89 40.77 8.51 C 41.51 7.52 42.43 7.27 43.24 7.83 C 44.03 8.38 44.21 9.54 43.55 10.48 C 42.85 11.49 42.08 12.45 41.33 13.43 C 40.74 14.21 40.14 15 39.53 15.77 C 39.21 16.17 39.22 16.49 39.53 16.9 C 40.89 18.66 42.22 20.43 43.55 22.21 C 44.05 22.87 44.07 23.79 43.65 24.39 C 43.19 25.04 42.53 25.17 41.8 24.99 C 41.25 24.85 40.91 24.41 40.59 23.98 C 39.66 22.74 38.75 21.49 37.82 20.25 C 37.12 19.3 36.91 19.3 36.17 20.26 C 35.17 21.57 34.19 22.91 33.19 24.23 C 32.62 24.98 31.92 25.26 31.17 25 C 30.44 24.75 30.09 24.19 30.09 23.4 C 30.09 22.73 29.76 22.95 29.45 23.2 C 27.9 24.4 26.15 25.02 24.19 25.05 C 21.34 25.09 19.09 23.88 17.3 21.73 C 16.66 20.97 16.53 20.95 15.95 21.73 C 12.88 25.82 6.65 26.25 3 22.38 C 1.47 20.76 0.65 18.83 0.63 16.6 C 0.61 12 0.63 7.41 0.63 2.81 C 0.62 2.26 0.71 1.75 1.03 1.29 C 1.49 0.62 2.15 0.4 2.92 0.54 C 3.63 0.67 4.22 1.32 4.32 2.11 C 4.57 4.13 4.49 6.16 4.4 8.19 C 4.39 8.39 4.26 8.65 4.46 8.79 C 4.66 8.94 4.86 8.74 5.04 8.64 C 8.84 6.52 13.57 7.55 16.16 11.18 C 16.51 11.69 16.73 11.75 17.13 11.2 C 20.19 7.05 25.26 6.34 29.41 9.44 C 29.58 9.56 29.76 9.68 30.05 9.88 L 30.05 9.88 Z M 13.93 16.45 C 14.13 13.83 11.67 11.51 9.29 11.57 C 6.63 11.63 4.48 13.67 4.47 16.3 C 4.47 18.95 6.53 21.01 9.18 21.03 C 11.82 21.04 13.92 19.02 13.93 16.45 L 13.93 16.45 Z M 19.38 16.33 C 19.1 18.49 21.29 21.08 24.08 21.04 C 26.71 20.99 28.84 18.96 28.84 16.43 C 28.84 13.75 26.73 11.67 24.13 11.56 C 21.73 11.47 19.15 13.85 19.38 16.33 L 19.38 16.33 Z M 31.97 20.21 C 32.81 19.09 33.66 17.96 34.51 16.84 C 34.78 16.48 34.76 16.17 34.48 15.83 C 33.86 15.06 33.28 14.26 32.68 13.48 C 32.54 13.31 32.46 13.06 32.08 13.11 C 32.87 15.49 32.87 17.84 31.97 20.21 L 31.97 20.21 Z M 31.97 20.21" />
</svg>