<?xml version="1.0" encoding="utf-8"?>
<!-- Generator: Adobe Illustrator 16.0.0, SVG Export Plug-In . SVG Version: 6.00 Build 0)  -->
<!DOCTYPE svg PUBLIC "-//W3C//DTD SVG 1.1//EN" "http://www.w3.org/Graphics/SVG/1.1/DTD/svg11.dtd">
<svg version="1.1" id="Capa_1" xmlns="http://www.w3.org/2000/svg" xmlns:xlink="http://www.w3.org/1999/xlink" x="0px" y="0px"
	 width="37px" height="34px" viewBox="0 0 37 34" enable-background="new 0 0 37 34" xml:space="preserve">
<title>Page 1</title>
<desc>Created with Sketch.</desc>
<g id="Page-1">
	<g>
		<g id="Group-3" transform="translate(7.000000, 20.467800)">
			<g id="Clip-2">
			</g>
			<defs>
				<filter id="Adobe_OpacityMaskFilter" filterUnits="userSpaceOnUse" x="0.328" y="0.239" width="21.188" height="12.762">
					<feColorMatrix  type="matrix" values="1 0 0 0 0  0 1 0 0 0  0 0 1 0 0  0 0 0 1 0"/>
				</filter>
			</defs>
			<mask maskUnits="userSpaceOnUse" x="0.328" y="0.239" width="21.188" height="12.762" id="mask-2">
				<g filter="url(#Adobe_OpacityMaskFilter)">
					<polygon id="path-1" fill="#FFFFFF" points="0.328,13 21.516,13 21.516,0.239 0.328,0.239 					"/>
				</g>
			</mask>
			<path id="Fill-1" mask="url(#mask-2)" fill="#FFFFFF" d="M21.424,4.229c-0.057-0.03-0.125-0.028-0.18,0.007l-2.893,2.14
				L11.147,0.28c-0.066-0.055-0.162-0.055-0.227,0l-7.217,6.1L0.595,4.233C0.54,4.2,0.473,4.199,0.418,4.23
				c-0.055,0.032-0.09,0.09-0.09,0.153v2.127c0,0.062,0.033,0.119,0.086,0.15l10.529,6.314c0.028,0.016,0.059,0.025,0.09,0.025
				c0.032,0,0.064-0.01,0.092-0.027L21.432,6.66c0.053-0.032,0.084-0.088,0.084-0.149V4.384C21.516,4.319,21.48,4.261,21.424,4.229"
				/>
		</g>
		<path id="Fill-4" fill="#FFFFFF" d="M18.033,19.314c-0.007-0.006-0.011-0.015-0.02-0.02L7.599,12.882l10.414-6.354l0.003-0.003
			l10.406,6.357L18.078,19.27C18.059,19.281,18.046,19.298,18.033,19.314L18.033,19.314z M35.997,7.164
			c0.045-0.035,0.07-0.089,0.068-0.146c-0.003-0.056-0.032-0.108-0.079-0.139l-10.434-6.85c-0.065-0.043-0.15-0.038-0.209,0.012
			l-7.332,6.183l-7.275-6.182c-0.059-0.051-0.145-0.056-0.21-0.013L0.079,6.879C0.032,6.909,0.002,6.961,0,7.018
			c-0.002,0.057,0.023,0.111,0.067,0.146l7.328,5.709c0.007,0.006,0.017,0.004,0.017,0.004c0,0.008-0.009,0.007-0.015,0.013
			l-7.328,5.59C0.024,18.516-0.002,18.57,0,18.628c0.002,0.058,0.032,0.108,0.08,0.14l10.624,6.854
			c0.029,0.019,0.063,0.028,0.096,0.028c0.04,0,0.08-0.015,0.113-0.043l7.122-6.028c0.009-0.009,0.013-0.019,0.02-0.028l0.002,0.002
			l7.167,6.055c0.033,0.028,0.074,0.043,0.113,0.043c0.033,0,0.067-0.01,0.096-0.029l10.375-6.795
			c0.047-0.031,0.076-0.082,0.08-0.139c0.002-0.057-0.023-0.111-0.068-0.146l-7.195-5.65c-0.007-0.006-0.017-0.005-0.025-0.009
			c0.008-0.005,0.018-0.003,0.024-0.009L35.997,7.164z"/>
	</g>
</g>
</svg>
