<?xml version="1.0" encoding="UTF-8" standalone="no"?>
<svg width="18px" height="26px" viewBox="0 0 18 26" version="1.1" xmlns="http://www.w3.org/2000/svg" xmlns:xlink="http://www.w3.org/1999/xlink">
    <!-- Generator: Sketch 41 (35326) - http://www.bohemiancoding.com/sketch -->
    <title>Page 1</title>
    <desc>Created with Sketch.</desc>
    <defs>
        <polygon id="path-1" points="17.787 0.0004 17.787 26 0 26 0 0.0004 17.787 0.0004"></polygon>
    </defs>
    <g id="Page-1" stroke="none" stroke-width="1" fill="none" fill-rule="evenodd">
        <g>
            <mask id="mask-2" fill="white">
                <use xlink:href="#path-1"></use>
            </mask>
            <g id="Clip-2"></g>
            <path d="M8.0907,3.0734 C10.8667,3.0734 13.1267,5.3434 13.1267,8.1324 C13.1267,10.9194 10.8667,13.1954 8.0907,13.1954 C5.3127,13.1954 3.0537,10.9194 3.0537,8.1324 C3.0537,5.3434 5.3127,3.0734 8.0907,3.0734 M-0.0003,8.1324 C-0.0003,12.6144 3.6287,16.2624 8.0907,16.2624 C8.7797,16.2624 9.4447,16.1674 10.0837,16.0044 L13.8127,24.1804 L13.8127,24.1844 L14.5227,25.7384 C14.5717,25.8424 14.6627,25.9304 14.7757,25.9744 C14.8127,25.9834 14.8467,25.9934 14.8877,25.9974 L14.9047,26.0004 L14.9217,25.9974 C14.9907,25.9974 15.0567,25.9894 15.1217,25.9594 L17.5217,24.8564 C17.7497,24.7494 17.8507,24.4764 17.7457,24.2514 L17.0377,22.6994 L17.0377,22.6944 L13.2487,14.3894 C15.0417,12.8974 16.1837,10.6474 16.1837,8.1324 C16.1837,3.6484 12.5537,0.0004 8.0907,0.0004 C3.6287,0.0004 -0.0003,3.6484 -0.0003,8.1324" id="Fill-1" fill="#00A8FF" mask="url(#mask-2)"></path>
        </g>
    </g>
</svg>