<?xml version="1.0" encoding="utf-8"?>
<!-- Generator: Adobe Illustrator 20.0.0, SVG Export Plug-In . SVG Version: 6.00 Build 0)  -->
<svg version="1.1" id="Capa_1" xmlns="http://www.w3.org/2000/svg" xmlns:xlink="http://www.w3.org/1999/xlink" x="0px" y="0px"
	 viewBox="0 0 43.5 25.7" style="enable-background:new 0 0 43.5 25.7;" xml:space="preserve">
<style type="text/css">
	.st0{fill:#0066AC;}
</style>
<g>
	<g>
		<path class="st0" d="M39.4,16.3c0-0.2,0-0.2,0-0.4c0-3.5-2.9-6.3-6.3-6.3c-1.2,0-2.4,0.4-3.5,1c-1.2-2.2-3.7-3.9-6.3-3.9
			c-3.9,0-7.1,3.3-7.1,7.1c0,0.2,0,0.2,0,0.4c-0.2,0-0.4,0-0.4,0c-3.3,0-5.7,2.7-5.7,5.7s2.7,5.7,5.7,5.7l0,0l0,0h21h3.7
			c0.2,0,0.2-0.2,0.4-0.2c1.6-0.8,2.7-2.4,2.7-4.5C43.7,18.8,41.8,16.7,39.4,16.3z"/>
		<path class="st0" d="M14.9,13.1c0.4-4.3,4.1-7.8,8.4-7.8c2.7,0,5.3,1.2,6.9,3.5c1-0.4,2-0.6,3.1-0.6h0.2C32.9,3.7,29,0,24.1,0
			c-3.7,0-6.7,2-8.4,5.1c-1-0.6-2.2-1-3.7-1c-3.7,0-6.7,3.1-6.7,6.7c0,0.4,0,1,0.2,1.4C2.4,12.5,0,15.1,0,18.2
			c0,3.3,2.7,5.9,5.9,5.9h3.9c-0.8-1.2-1.2-2.4-1.2-3.9C8.6,16.5,11.4,13.5,14.9,13.1z"/>
	</g>
</g>
</svg>
