<?xml version="1.0" encoding="UTF-8" standalone="no"?>
<svg width="101px" height="101px" viewBox="0 0 101 101" version="1.1" xmlns="http://www.w3.org/2000/svg" xmlns:xlink="http://www.w3.org/1999/xlink">
    <!-- Generator: Sketch 41 (35326) - http://www.bohemiancoding.com/sketch -->
    <title>memo</title>
    <desc>Created with Sketch.</desc>
    <defs></defs>
    <g id="Page-1" stroke="none" stroke-width="1" fill="none" fill-rule="evenodd">
        <g id="memo">
            <path d="M50.5,101.000404 C22.6543,101.000404 0,78.346104 0,50.500404 C0,22.654704 22.6543,0.000404 50.5,0.000404 C78.3457,0.000404 101,22.654704 101,50.500404 C101,78.346104 78.3457,101.000404 50.5,101.000404" id="Fill-3" fill="#00A8FF"></path>
            <path d="M72.394982,72.714748 C72.394982,73.199548 72.001082,73.593448 71.514262,73.593448 L46.639982,73.593448 C46.155182,73.593448 45.759262,73.199548 45.759262,72.714748 L45.759262,66.731508 L54.360422,66.731508 C56.594542,66.731508 58.406482,64.919568 58.406482,62.685448 L58.406482,37.435448 L71.514262,37.435448 C72.001082,37.435448 72.394982,37.831368 72.394982,38.316168 L72.394982,72.714748 Z M71.514262,34.268088 L58.406482,34.268088 L58.406482,28.286868 C58.406482,26.052748 56.594542,24.240808 54.360422,24.240808 L29.486142,24.240808 C27.250002,24.240808 25.438062,26.052748 25.438062,28.286868 L25.438062,62.685448 C25.438062,64.919568 27.250002,66.731508 29.486142,66.731508 L42.591902,66.731508 L42.591902,72.714748 C42.591902,74.946848 44.405862,76.760808 46.639982,76.760808 L71.514262,76.760808 C73.750402,76.760808 75.562342,74.946848 75.562342,72.714748 L75.562342,38.316168 C75.562342,36.082048 73.750402,34.268088 71.514262,34.268088 L71.514262,34.268088 Z" id="Fill-1" fill="#FFFFFF"></path>
        </g>
    </g>
</svg>